<svg id="Layer_1" enable-background="new 0 0 495.939 495.939" height="512" viewBox="0 0 495.939 495.939" width="512" xmlns="http://www.w3.org/2000/svg"><path d="m486.27 108.497c0 59.925-48.572 108.497-108.497 108.497s-108.497-48.572-108.497-108.497c0-59.981 48.642-108.497 108.497-108.497 59.828 0 108.497 48.489 108.497 108.497z" fill="#ffb446"/><circle cx="377.773" cy="108.497" fill="#fedf84" r="74.235"/><path d="m486.27 108.497c0 84.107-91.556 135.632-163.157 93.742 14.39-5.082 27.935-12.129 40.247-20.911 72.775 14.448 118.838-75.67 65.738-126.451.034-17.04-2.558-32.412-5.767-44.872 39.409 18.541 62.939 56.983 62.939 98.492z" fill="#fba930"/><path d="m452.008 108.497c0 46.842-42.891 81.914-88.648 72.83 40.1-28.596 65.604-74.315 65.738-126.451 14.116 13.5 22.91 32.538 22.91 53.621z" fill="#fed66b"/><path d="m364.029 35.541c-44.628 8.348-71.561 54.885-56.19 97.91-10.633 6.91-21.38 11.626-31.03 14.87-25.425-64.407 15.54-136.666 84.695-147.11 1.862 9.502 3.187 21.276 2.525 34.33z" fill="#ffc673"/><path d="m364.029 35.541c-2.111 41.244-23.611 76.796-56.19 97.91-15.401-43.107 11.636-89.575 56.19-97.91z" fill="#fee59b"/><path d="m236.455 138.497c0 59.925-48.572 108.497-108.497 108.497s-108.497-48.572-108.497-108.497c0-59.981 48.642-108.497 108.497-108.497 59.828-.001 108.497 48.488 108.497 108.497z" fill="#ffb446"/><circle cx="127.958" cy="138.497" fill="#fedf84" r="74.235"/><path d="m236.455 138.497c0 84.107-91.556 135.632-163.157 93.742 14.39-5.082 27.935-12.129 40.247-20.911 72.775 14.448 118.838-75.67 65.738-126.451.034-17.04-2.558-32.412-5.767-44.872 39.409 18.54 62.939 56.983 62.939 98.492z" fill="#fba930"/><path d="m202.193 138.497c0 46.842-42.89 81.914-88.648 72.83 40.1-28.596 65.604-74.315 65.738-126.451 14.116 13.5 22.91 32.538 22.91 53.621z" fill="#fed66b"/><path d="m114.213 65.541c-44.628 8.348-71.561 54.885-56.19 97.91-10.633 6.91-21.38 11.626-31.03 14.87-25.424-64.407 15.541-136.666 84.696-147.111 1.862 9.502 3.187 21.277 2.524 34.331z" fill="#ffc673"/><path d="m114.213 65.541c-2.111 41.244-23.611 76.796-56.19 97.91-15.4-43.108 11.637-89.576 56.19-97.91z" fill="#fee59b"/><path d="m490.46 186.06v44.22c0 8.84-7.16 16-16 16h-20.41v233.66c0 8.83-7.16 16-16 16h-378.88c-8.84 0-16-7.17-16-16v-233.66h-21.71c-8.84 0-16-7.16-16-16v-44.22c0-8.83 7.16-16 16-16h453c8.841 0 16 7.169 16 16z" fill="#fbb982"/><path d="m474.46 170.059c8.84 0 16 7.17 16 16v44.22c0 8.84-7.16 16-16 16-16.858 0-436.308 0-453 0-8.84 0-16-7.16-16-16v-44.22c0-8.83 7.16-16 16-16z" fill="#fbb982"/><path d="m490.46 186.06c0 2.391.166 2-.5 2-432.1 0-352.55 0-453 0-8.84 0-16 7.17-16 16v42.21c-8.61-.26-15.5-7.32-15.5-15.99v-44.22c0-8.83 7.16-16 16-16h453c8.841 0 16 7.169 16 16z" fill="#ffca9e"/><path d="m43.17 246.28h410.88v23h-410.88z" fill="#f2ab6f"/><path d="m336.47 290.489h-175.72c-30.47 0-55.17 24.7-55.17 55.17v40.5c0 30.47 24.7 55.16 55.17 55.16h175.72c30.47 0 55.17-24.69 55.17-55.16v-40.5c0-30.47-24.7-55.17-55.17-55.17z" fill="#e2f2fe"/><path d="m391.64 345.659v40.5c0 30.47-24.7 55.16-55.17 55.16h-175.72c-23.74 0-43.97-14.98-51.75-36.01 13.06 4.843 6.747 3.42 194.88 3.42 30.47 0 55.17-24.69 55.17-55.16 0-41.752 1.096-47.46-3.42-59.66 21.03 7.78 36.01 28.02 36.01 51.75z" fill="#cfebfc"/><path d="m454.051 357.08v122.86c0 8.83-7.16 16-16 16h-378.881c-8.84 0-16-7.17-16-16v-14.94h325.91c14.47 0 28.37-5.63 38.76-15.7l4.01-3.88c10.83-10.5 16.94-24.93 16.94-40.01.001-25.878 15.853-38.923 25.261-48.33z" fill="#f2ab6f"/><g fill="#535460"><path d="m157.59 324.1c-4.418 0-8 3.582-8 8v67.62c0 4.418 3.582 8 8 8s8-3.582 8-8v-67.62c0-4.419-3.582-8-8-8z"/><path d="m241.854 344.206c3.405 2.816 8.448 2.335 11.263-1.069 2.815-3.406 2.336-8.448-1.069-11.263-21.906-18.11-55.646-2.634-55.646 26.236v15.6c0 28.522 32.884 44.061 54.951 26.79 3.479-2.723 4.091-7.751 1.368-11.23-2.724-3.479-7.751-4.092-11.231-1.368-11.596 9.078-29.088 1.028-29.088-14.191v-15.6c-.001-15.3 17.877-23.472 29.452-13.905z"/><path d="m313.621 324.1c-18.748 0-34 15.257-34 34.01v15.6c0 18.753 15.252 34.01 34 34.01 18.753 0 34.01-15.257 34.01-34.01v-15.6c-.001-18.754-15.257-34.01-34.01-34.01zm18.009 49.609c0 9.931-8.079 18.01-18.01 18.01-9.925 0-18-8.08-18-18.01v-15.6c0-9.931 8.075-18.01 18-18.01 9.931 0 18.01 8.079 18.01 18.01z"/></g><path d="m396.18 71.195v-6.175c0-4.418-3.582-8-8-8s-8 3.582-8 8v4.47h-6.439v-4.47c0-4.418-3.582-8-8-8s-8 3.582-8 8v4.47h-6.971c-4.418 0-8 3.582-8 8s3.582 8 8 8h1.98v48.02h-1.98c-4.418 0-8 3.582-8 8s3.582 8 8 8h6.971v4.47c0 4.418 3.582 8 8 8s8-3.582 8-8v-4.47h6.439v4.47c0 4.418 3.582 8 8 8s8-3.582 8-8v-6.162c15.372-6.14 20.084-25.966 8.576-38.31 11.367-12.174 7.002-32.065-8.576-38.313zm-3.318 60.029c-3.043 3.045-4.637 2.286-24.111 2.286v-15.59h18.6c6.958-.001 10.393 8.423 5.511 13.304zm-5.512-45.734c6.964 0 10.385 8.442 5.522 13.304-3.03 3.019-4.529 2.286-24.122 2.286v-15.59z" fill="#ffb446"/></svg>