<svg id="Capa_1" enable-background="new 0 0 512 512" height="512" viewBox="0 0 512 512" width="512" xmlns="http://www.w3.org/2000/svg"><g><path d="m436.435 219.403h-16.029c.38-4.571.585-9.192.585-13.861 0-91.122-73.869-164.991-164.991-164.991-76.392 0-140.648 51.922-159.428 122.398-53.964 3.773-96.572 48.739-96.572 103.662 0 57.395 46.528 103.923 103.923 103.923h152.077 180.435c41.733 0 75.565-33.832 75.565-75.565 0-41.734-33.832-75.566-75.565-75.566z" fill="#9dc6fb"/><path d="m120.583 266.611c0 28.701 11.631 54.682 30.442 73.483 18.811 18.811 44.792 30.442 73.483 30.442h-120.583c-28.701 0-54.682-11.631-73.493-30.442-18.801-18.801-30.432-44.783-30.432-73.483 0-54.919 42.608-99.886 96.569-103.657 18.78-70.475 83.043-122.406 159.431-122.406 21.283 0 41.619 4.028 60.297 11.373-48.367 18.997-85.588 60.193-99.134 111.033-53.972 3.77-96.58 48.738-96.58 103.657z" fill="#80b5fc"/><g><path d="m256 274.534c-4.267 0-7.726-3.459-7.726-7.726v-135.371c0-4.267 3.459-7.726 7.726-7.726s7.726 3.459 7.726 7.726v135.371c0 4.266-3.459 7.726-7.726 7.726z" fill="#80b5fc"/><circle cx="256" cy="119.368" fill="#5766cb" r="22.042"/><path d="m265.132 139.426c-2.781 1.267-5.872 1.978-9.128 1.978-12.177 0-22.046-9.869-22.046-22.036 0-12.177 9.869-22.046 22.046-22.046 3.256 0 6.346.711 9.128 1.978-7.613 3.472-12.898 11.147-12.898 20.068 0 8.911 5.285 16.586 12.898 20.058z" fill="#3d4fc3"/></g><g><path d="m216.853 281.189c-4.267 0-7.726-3.459-7.726-7.726v-73.659l-40.37-40.37c-3.018-3.017-3.018-7.909 0-10.927 3.017-3.018 7.909-3.018 10.927 0l42.633 42.633c1.449 1.449 2.263 3.414 2.263 5.463v76.86c-.001 4.266-3.46 7.726-7.727 7.726z" fill="#80b5fc"/><circle cx="174.227" cy="153.962" fill="#5766cb" r="22.042"/><path d="m183.359 133.905c-2.781-1.267-5.872-1.978-9.128-1.978-12.177 0-22.046 9.869-22.046 22.036 0 12.177 9.869 22.046 22.046 22.046 3.256 0 6.346-.711 9.128-1.978-7.613-3.472-12.898-11.147-12.898-20.068 0-8.912 5.285-16.586 12.898-20.058z" fill="#3d4fc3"/></g><g><path d="m295.147 281.189c-4.267 0-7.726-3.459-7.726-7.726v-76.86c0-2.049.814-4.015 2.263-5.463l42.631-42.631c3.017-3.018 7.909-3.018 10.927 0 3.018 3.017 3.018 7.909 0 10.927l-40.368 40.368v73.659c-.001 4.266-3.46 7.726-7.727 7.726z" fill="#80b5fc"/><circle cx="337.773" cy="153.967" fill="#5766cb" r="22.042"/><path d="m346.904 174.024c-2.781 1.267-5.872 1.978-9.128 1.978-12.177 0-22.046-9.869-22.046-22.036 0-12.177 9.869-22.046 22.046-22.046 3.256 0 6.346.711 9.128 1.978-7.613 3.472-12.898 11.147-12.898 20.068.001 8.912 5.285 16.587 12.898 20.058z" fill="#3d4fc3"/></g><circle cx="256" cy="353.328" fill="#ffd064" r="118.124"/><circle cx="256" cy="353.328" fill="#ffe07d" r="87.755"/><path d="m286.516 344.654c2.261-3.753 3.564-8.144 3.564-12.836 0-11.061-7.237-20.458-17.223-23.719v-13.086c0-4.267-3.459-7.726-7.726-7.726s-7.726 3.459-7.726 7.726v11.856h-7.231v-11.856c0-4.267-3.459-7.726-7.726-7.726s-7.726 3.459-7.726 7.726v11.856h-1.096-13.414c-4.267 0-7.726 3.459-7.726 7.726s3.459 7.726 7.726 7.726h5.688v62.014h-5.688c-4.267 0-7.726 3.459-7.726 7.726s3.459 7.726 7.726 7.726h13.414 1.096v11.856c0 4.267 3.459 7.726 7.726 7.726s7.726-3.459 7.726-7.726v-11.856h7.231v11.856c0 4.267 3.459 7.726 7.726 7.726s7.726-3.459 7.726-7.726v-11.856h.115c16.121 0 29.236-13.115 29.236-29.236.001-11.235-6.373-21.004-15.692-25.897zm-21.385-3.339h-23.78v-18.993h23.78c5.236 0 9.497 4.26 9.497 9.496s-4.261 9.497-9.497 9.497zm7.841 43.02h-31.621v-27.567h23.78 7.842c7.6 0 13.784 6.184 13.784 13.784s-6.185 13.783-13.785 13.783z" fill="#ffc250"/></g></svg>