<svg id="Layer_1" enable-background="new 0 0 512 512" height="512" viewBox="0 0 512 512" width="512" xmlns="http://www.w3.org/2000/svg"><g><g><path d="m43.28 174.33v-145.76s74.167-7.519 114.969 58.574z" fill="#ffcce8"/><path d="m468.543 174.33v-145.76s-74.167-7.519-114.969 58.574z" fill="#ffcce8"/><g fill="#fff"><path d="m83.532 55.175c-4.002-1.451-8.436.615-9.892 4.625-1.458 4.008.612 8.44 4.619 9.9.357.13 35.902 13.27 54.31 36.429 1.525 1.92 3.779 2.92 6.053 2.92 1.685 0 3.381-.549 4.803-1.679 3.34-2.655 3.895-7.515 1.24-10.856-21.162-26.625-59.51-40.751-61.133-41.339z"/><path d="m438.365 59.804c-1.455-4.011-5.886-6.084-9.897-4.629-1.623.589-39.971 14.714-61.133 41.339-2.655 3.341-2.1 8.201 1.24 10.856 1.422 1.13 3.118 1.679 4.803 1.679 2.275-.001 4.528-1.001 6.053-2.92 18.368-23.109 53.801-36.242 54.307-36.428 4.011-1.456 6.082-5.887 4.627-9.897z"/></g><g><g><path d="m79.506 510.698-.116-.077c-22.657-15.068 47.332-160.14 47.332-160.14l82.164 54.643c0-.001-106.723 120.641-129.38 105.574z" fill="#ffcce8"/></g><g><path d="m432.494 510.698.116-.077c22.657-15.068-47.332-160.14-47.332-160.14l-82.164 54.643c0-.001 106.723 120.641 129.38 105.574z" fill="#ffcce8"/></g></g><ellipse cx="256" cy="259.543" fill="#ff9ed3" rx="231.627" ry="230.973"/><path d="m256 28.57c-6.846 0-13.603.298-20.273.849 124.073 9.959 210.693 108.074 210.693 230.124 0 120.637-92.753 219.655-211.024 230.053 6.79.597 13.658.92 20.604.92 127.924 0 231.627-103.41 231.627-230.973 0-128.806-96.468-230.973-231.627-230.973z" fill="#ff8aca"/><g><ellipse cx="256" cy="353.407" fill="#ffcce8" rx="130.929" ry="90.133"/><g fill="#ff7dc4"><path d="m211.021 319.761c-4.268 0-7.726 3.459-7.726 7.726v51.84c0 4.267 3.459 7.726 7.726 7.726 4.268 0 7.726-3.459 7.726-7.726v-51.84c0-4.267-3.458-7.726-7.726-7.726z"/><path d="m300.979 319.761c-4.268 0-7.726 3.459-7.726 7.726v51.84c0 4.267 3.459 7.726 7.726 7.726s7.726-3.459 7.726-7.726v-51.84c0-4.267-3.459-7.726-7.726-7.726z"/></g></g><path d="m337.035 85.5h-162.07c-12.045 0-21.81 9.737-21.81 21.748 0 12.011 9.765 21.748 21.81 21.748h162.069c12.045 0 21.81-9.737 21.81-21.748.001-12.011-9.764-21.748-21.809-21.748z" fill="#65b9d7"/></g><g><g><path d="m328.839 72.85c0-40.234-32.611-72.85-72.839-72.85s-72.839 32.616-72.839 72.85c0 22.594 10.286 42.784 26.428 56.147h92.823c16.142-13.363 26.427-33.553 26.427-56.147z" fill="#ffe563"/></g><path d="m256 0c-7.158 0-14.068 1.05-20.604 2.975 30.191 8.892 52.236 36.801 52.236 69.875 0 22.594-10.286 42.784-26.428 56.147h41.207c16.142-13.362 26.428-33.552 26.428-56.147 0-40.234-32.611-72.85-72.839-72.85z" fill="#ffdc2e"/><path d="m265.363 65.188c-6.04-2.138-12.711-4.713-16.392-7.604-.904-.711-1.288-2.524-.933-4.41.187-.989 1.053-4.295 4.369-5.295 4.016-1.213 8.496-.415 11.396 1.684 0 0 6.66 4.3 10.868-.629 4.507-5.28-.383-10.723-.383-10.723-2.117-1.955-5.971-4.338-10.978-5.576v-1.998c0-4.267-3.459-7.726-7.726-7.726s-7.726 3.459-7.726 7.726v2.476c-7.7 2.36-13.447 8.939-15.004 17.196-1.446 7.663 1.072 15.107 6.572 19.427 5.426 4.261 13.193 7.333 20.78 10.019 5.93 2.099 6.102 6.649 5.677 9.174-.71 4.216-4.251 8.772-10.35 8.813-6.391.045-8.218-.246-13.047-3.408-3.57-2.338-8.36-1.341-10.696 2.23-2.339 3.569-1.34 8.359 2.229 10.697 5.26 3.446 9.207 4.958 13.839 5.568v2.234c0 4.267 3.459 7.726 7.726 7.726s7.726-3.459 7.726-7.726v-3.037c9.972-3.096 16.353-11.872 17.811-20.53 1.971-11.702-4.362-22.274-15.758-26.308z" fill="#ffb700"/></g></g></svg>